<svg id="Capa_1" enable-background="new 0 0 512 512" height="512" viewBox="0 0 512 512" width="512" xmlns="http://www.w3.org/2000/svg"><g><path d="m506.681 149.34-52.1 52.09v22.86c0 25.26-20.55 45.81-45.81 45.81h-190.15c-12.41 0-19.55-6-19.55-17.61v-206.68c0-25.26 20.55-45.81 45.81-45.81h163.89c25.26 0 45.81 20.55 45.81 45.81v30.21l52.1 52.1c5.87 5.87 5.859 15.36 0 21.22z" fill="#cb75f6"/><path d="m506.681 149.34-52.1 52.09v22.86c0 25.26-20.55 45.81-45.81 45.81h-80.3v-270.1h80.3c25.26 0 45.81 20.55 45.81 45.81v30.21l52.1 52.1c5.87 5.87 5.859 15.36 0 21.22z" fill="#a24bdb"/><path d="m393.341 188.58-17.52-41.22c-.02-.04-.04-.09-.06-.14l-32.9-77.43c-.12-.23-.23-.46-.36-.68-3.33-6.08-8.8-8.53-14.03-8.34-5.64.2-10.99 3.48-13.03 8.59l-54.94 118.79c-3.48 7.52-.2 16.43 7.32 19.91 7.518 3.481 16.426.197 19.91-7.32l15.08-32.61h49.24l13.68 32.18c3.189 7.524 11.908 11.215 19.67 7.94 7.62-3.24 11.18-12.05 7.94-19.67zm-76.66-50.45 11.79-25.49 10.83 25.49z" fill="#f0f7ff"/><path d="m271.021 316.14v124.36c0 8.29-6.72 15-15 15h-21.01l-52.11 52.11c-5.829 5.829-15.332 5.878-21.21 0l-52.11-52.11h-93.66c-8.28 0-15-6.71-15-15v-225.51c0-8.28 6.72-15 15-15h138.95c64.05 0 116.15 52.11 116.15 116.15z" fill="#4793ff"/><path d="m271.021 316.14v124.36c0 8.29-6.72 15-15 15h-21.01l-52.11 52.11c-5.829 5.829-15.332 5.878-21.21 0l-32.47-32.47v-275.15h25.65c64.05 0 116.15 52.11 116.15 116.15z" fill="#525cdd"/><path d="m191.351 386.75-11.23-11.24c1.37-3.65 2.12-7.6 2.12-11.72v-70.32c0-18.46-15.02-33.48-33.48-33.48h-39.09c-18.46 0-33.47 15.02-33.47 33.48v70.32c0 18.46 15.01 33.47 33.47 33.47h39.09c3.25 0 6.38-.47 9.35-1.33l12.03 12.03c5.828 5.828 15.332 5.878 21.21 0 5.86-5.86 5.86-15.36 0-21.21zm-39.11-22.96c0 1.92-1.56 3.47-3.48 3.47h-39.09c-1.91 0-3.47-1.55-3.47-3.47v-70.32c0-1.92 1.56-3.48 3.47-3.48h39.09c1.92 0 3.48 1.56 3.48 3.48z" fill="#f0f7ff"/><g fill="#dfe7f4"><path d="m191.351 407.96c-5.848 5.848-15.351 5.859-21.21 0l-12.03-12.03c-2.97.86-6.1 1.33-9.35 1.33h-19.54v-30h19.54c1.92 0 3.48-1.55 3.48-3.47v-70.32c0-1.92-1.56-3.48-3.48-3.48h-19.54v-30h19.54c18.46 0 33.48 15.02 33.48 33.48v70.32c0 4.12-.75 8.07-2.12 11.72l11.23 11.24c5.86 5.85 5.86 15.35 0 21.21z"/><path d="m385.401 208.25c-7.751 3.27-16.477-.405-19.67-7.94l-13.68-32.18h-23.58v-30h10.83l-10.83-25.49v-51.87c5.23-.19 10.7 2.26 14.03 8.34.13.22.24.45.36.68l32.9 77.43c.02.05.04.1.06.14l17.52 41.22c3.24 7.62-.32 16.43-7.94 19.67z"/></g></g></svg>